<svg width="13" height="15" viewBox="0 0 13 15" xmlns="http://www.w3.org/2000/svg">
<path d="M9.8125 0.5C9.41406 0.5 9.02734 0.576172 8.65234 0.728516C8.28906 0.880859 7.96094 1.10352 7.66797 1.39648L2.39453 6.66992C1.84375 7.2207 1.46875 7.86523 1.26953 8.60352C1.08203 9.33008 1.08203 10.0625 1.26953 10.8008C1.46875 11.5391 1.84375 12.1836 2.39453 12.7344C2.94531 13.2852 3.58984 13.6602 4.32812 13.8594C5.06641 14.0469 5.79883 14.0469 6.52539 13.8594C7.26367 13.6602 7.9082 13.2852 8.45898 12.7344L11.9746 9.21875L11.1836 8.42773L7.66797 11.9434C7.25781 12.3535 6.77734 12.6289 6.22656 12.7695C5.6875 12.9102 5.14844 12.9102 4.60938 12.7695C4.07031 12.6289 3.5957 12.3535 3.18555 11.9434C2.77539 11.5332 2.5 11.0586 2.35938 10.5195C2.21875 9.98047 2.21875 9.44141 2.35938 8.90234C2.5 8.35156 2.77539 7.87109 3.18555 7.46094L8.45898 2.1875C8.70508 1.94141 8.99219 1.77734 9.32031 1.69531C9.64844 1.60156 9.97656 1.60156 10.3047 1.69531C10.6445 1.77734 10.9375 1.94141 11.1836 2.1875C11.4297 2.43359 11.5938 2.72656 11.6758 3.06641C11.7695 3.39453 11.7695 3.72266 11.6758 4.05078C11.5938 4.37891 11.4297 4.66602 11.1836 4.91211L5.91016 10.1855C5.76953 10.3262 5.60547 10.3965 5.41797 10.3965C5.24219 10.3965 5.08398 10.3262 4.94336 10.1855C4.80273 10.0449 4.73242 9.88672 4.73242 9.71094C4.73242 9.52344 4.80273 9.35938 4.94336 9.21875L9.77734 4.38477L8.98633 3.59375L4.15234 8.42773C3.80078 8.7793 3.625 9.20703 3.625 9.71094C3.625 10.2031 3.80078 10.625 4.15234 10.9766C4.50391 11.3281 4.92578 11.5039 5.41797 11.5039C5.92188 11.5039 6.34961 11.3281 6.70117 10.9766L11.9746 5.70312C12.3613 5.31641 12.6191 4.85938 12.748 4.33203C12.8887 3.80469 12.8887 3.2832 12.748 2.76758C12.6191 2.24023 12.3613 1.7832 11.9746 1.39648C11.6816 1.10352 11.3477 0.880859 10.9727 0.728516C10.5977 0.576172 10.2109 0.5 9.8125 0.5Z"/>
</svg>
