<svg width="18" height="18" viewBox="0 0 18 18" xmlns="http://www.w3.org/2000/svg">
<path d="M5.89966 0.822266L5.46997 1.10156L0.0344238 4.60352L3.2356 7.03125L0.829346 8.85742L-0.00854492 9.48047L0.893799 9.99609L3.38599 11.457V13.7559L8.80005 17.3223L13.9133 13.9922L14.2141 13.7773V11.4785L17.5442 9.50195L14.5149 6.92383L16.7922 5.05469L17.5442 4.45312L12.259 1.10156L11.8293 0.84375L8.80005 3.33594L6.28638 1.16602L5.89966 0.822266ZM11.9583 2.51953L15.2024 4.60352L13.3762 6.08594L10.0032 4.13086L11.9583 2.51953ZM5.77075 2.54102L7.66138 4.15234L4.41724 6.21484L2.41919 4.68945L5.77075 2.54102ZM8.80005 5.05469L12.1086 6.94531L8.80005 9.00781L5.68481 7.05273L8.80005 5.05469ZM13.3762 7.76172L15.1809 9.30859L13.2473 10.4688C13.19 10.4974 13.1327 10.5332 13.0754 10.5762L11.8723 11.2852L10.0032 9.86719L13.3762 7.76172ZM4.41724 7.86914L7.59692 9.86719L5.79224 11.2852L2.46216 9.33008L4.41724 7.86914ZM8.82153 10.6836L11.3997 12.6602L11.7864 12.9395L12.8391 12.2949V13.0254L8.80005 15.668L4.76099 13.0039V12.2734L5.89966 12.9395L6.26489 12.6602L8.82153 10.6836Z"/>
</svg>
