<svg width="16" height="16" viewBox="0 0 16 16" xmlns="http://www.w3.org/2000/svg">
<path d="M8 0.9375C6.67578 0.9375 5.44531 1.27148 4.30859 1.93945C3.20703 2.58398 2.33398 3.45703 1.68945 4.55859C1.02148 5.69531 0.6875 6.92578 0.6875 8.25C0.6875 9.31641 0.910156 10.3359 1.35547 11.3086C1.78906 12.2344 2.39844 13.043 3.18359 13.7344C3.28906 13.4297 3.45312 13.0723 3.67578 12.6621C3.08984 12.0879 2.63281 11.4316 2.30469 10.6934C1.97656 9.9082 1.8125 9.09375 1.8125 8.25C1.8125 7.13672 2.09375 6.09375 2.65625 5.12109C3.20703 4.19531 3.94531 3.45703 4.87109 2.90625C5.84375 2.34375 6.88672 2.0625 8 2.0625C8.84375 2.0625 9.6582 2.22656 10.4434 2.55469C11.1816 2.88281 11.8379 3.33984 12.4121 3.92578C12.834 3.70313 13.1914 3.5332 13.4844 3.41602C12.793 2.64258 11.9844 2.03906 11.0586 1.60547C10.0859 1.16016 9.06641 0.9375 8 0.9375ZM14.4688 4.3125C14.3281 4.3125 14.0879 4.38281 13.748 4.52344C13.502 4.62891 13.2207 4.76953 12.9043 4.94531L12.5 5.15625L12.9043 5.36719C13.2207 5.54297 13.502 5.68359 13.748 5.78906C14.0879 5.92969 14.3281 6 14.4688 6C14.7031 6 14.9023 5.91797 15.0664 5.75391C15.2305 5.58984 15.3125 5.39063 15.3125 5.15625C15.3125 4.92187 15.2305 4.72266 15.0664 4.55859C14.9023 4.39453 14.7031 4.3125 14.4688 4.3125ZM9.8457 4.4707L7.5957 6.7207L8.4043 7.5293L10.6543 5.2793L9.8457 4.4707ZM12.2539 6.80859L6.55859 12.5039C7.02734 12.668 7.50781 12.75 8 12.75C8.82031 12.75 9.57031 12.5508 10.25 12.1523C10.9414 11.7422 11.4863 11.1973 11.8848 10.5176C12.2949 9.82617 12.5 9.07031 12.5 8.25C12.5 7.75781 12.418 7.27734 12.2539 6.80859ZM15.1895 6.98438C14.9551 7.07812 14.7148 7.125 14.4688 7.125C14.3516 7.125 14.2168 7.10742 14.0645 7.07227C14.1465 7.4707 14.1875 7.86328 14.1875 8.25C14.1875 9.36328 13.9062 10.4062 13.3438 11.3789C12.793 12.3047 12.0547 13.043 11.1289 13.5938C10.1562 14.1562 9.11328 14.4375 8 14.4375C7.61328 14.4375 7.2207 14.3965 6.82227 14.3145C6.85742 14.4668 6.875 14.6016 6.875 14.7188C6.875 14.9648 6.82812 15.2051 6.73438 15.4395C7.17969 15.5215 7.60156 15.5625 8 15.5625C9.32422 15.5625 10.5547 15.2285 11.6914 14.5605C12.793 13.916 13.666 13.043 14.3105 11.9414C14.9785 10.8047 15.3125 9.57422 15.3125 8.25C15.3125 7.85156 15.2715 7.42969 15.1895 6.98438ZM6.4707 7.8457L4.2207 10.0957L5.0293 10.9043L7.2793 8.6543L6.4707 7.8457ZM4.90625 12.75C4.83594 12.8906 4.76562 13.0254 4.69531 13.1543C4.51953 13.4707 4.37891 13.752 4.27344 13.998C4.13281 14.3379 4.0625 14.5781 4.0625 14.7188C4.0625 14.9531 4.14453 15.1523 4.30859 15.3164C4.47266 15.4805 4.67188 15.5625 4.90625 15.5625C5.14062 15.5625 5.33984 15.4805 5.50391 15.3164C5.66797 15.1523 5.75 14.9531 5.75 14.7188C5.75 14.5781 5.67969 14.3379 5.53906 13.998C5.43359 13.752 5.29297 13.4707 5.11719 13.1543L4.90625 12.75Z"/>
</svg>
