<svg
  width="12"
  height="12"
  viewBox="0 0 12 12"
  fill="none"
  xmlns="http://www.w3.org/2000/svg"
>
  <path
    d="M5.96018 4.81188V7.18812C5.96018 7.18812 8.25006 7.18503 9.18245 7.18503C8.67754 8.72548 7.89245 9.56436 5.96018 9.56436C4.00471 9.56436 2.47849 7.96853 2.47849 6C2.47849 4.03147 4.00471 2.43564 5.96018 2.43564C6.99406 2.43564 7.66178 2.80147 8.27426 3.31135C8.76453 2.8178 8.72357 2.74747 9.9709 1.56166C8.91206 0.591446 7.50475 0 5.96018 0C2.66845 0 0 2.68628 0 6C0 9.31366 2.66845 12 5.96018 12C10.8804 12 12.083 7.68713 11.6843 4.81188H5.96018Z"
    fill="#8181A5"
  />
</svg>