<svg width="591" height="377" viewBox="0 0 591 377" fill="none" xmlns="http://www.w3.org/2000/svg">
<path opacity="0.1" d="M590.029 226.2C590.061 243.269 585.4 260.019 576.557 274.619C576.557 292.475 568.233 308.66 554.73 320.455C551.35 323.403 547.711 326.041 543.858 328.336C543.703 328.434 543.543 328.527 543.383 328.62C543.095 328.79 542.806 328.96 542.512 329.135L542.238 329.295C529.453 336.416 515.045 340.112 500.41 340.023H112.007C108.913 340.023 105.846 339.899 102.806 339.652C92.0045 338.801 81.3902 336.343 71.314 332.359C69.3473 331.582 67.4183 330.746 65.5272 329.852C64.6264 329.429 63.7341 328.994 62.8504 328.547C62.2986 328.269 61.7467 327.98 61.2 327.691C54.8459 324.343 48.8847 320.297 43.4269 315.628C25.8911 300.552 15.0189 279.725 15.0189 256.723C5.18207 241.575 -0.0362218 223.894 4.23427e-06 205.833C4.23427e-06 154.7 40.8688 113.249 91.2894 113.249C92.8367 113.249 94.384 113.295 95.9312 113.378C96.153 113.378 96.3696 113.378 96.5914 113.409C105.091 98.9209 116.453 85.6092 130.116 73.8911C167.374 41.9656 221.828 21.8407 282.487 21.8407C333.454 21.8407 380.042 36.0499 415.728 59.5272C429.25 51.8831 444.524 47.8759 460.057 47.8969C510.468 47.8969 551.347 89.3484 551.347 140.481C551.339 143.716 551.167 146.949 550.831 150.167C575.491 167.623 590.113 195.987 590.029 226.2Z" fill="#5E81F4"/>
<path d="M431 31C434.866 31 438 27.866 438 24C438 20.134 434.866 17 431 17C427.134 17 424 20.134 424 24C424 27.866 427.134 31 431 31Z" fill="#EEF2FD"/>
<path d="M390 305C393.866 305 397 301.866 397 298C397 294.134 393.866 291 390 291C386.134 291 383 294.134 383 298C383 301.866 386.134 305 390 305Z" fill="#F1F1F1"/>
<path d="M213 99C216.866 99 220 95.866 220 92C220 88.134 216.866 85 213 85C209.134 85 206 88.134 206 92C206 95.866 209.134 99 213 99Z" fill="#F1F1F1"/>
<path d="M187.07 288L206 281.966C204.952 273.955 202.561 266.187 198.93 259L180 265.034C184.442 271.856 186.894 279.819 187.07 288Z" fill="#5E81F4"/>
<path d="M141 146C150.941 146 159 137.941 159 128C159 118.059 150.941 110 141 110C131.059 110 123 118.059 123 128C123 137.941 131.059 146 141 146Z" fill="#2F2E41"/>
<path d="M121.5 350.882L118 365H126.5L130 349L121.5 350.882Z" fill="#9F616A"/>
<path d="M161 350V363.067L169 364V350H161Z" fill="#9F616A"/>
<path d="M119 197.482C119 197.482 119.97 218.29 120.939 219.741C121.909 221.193 130.636 242 130.636 242L135 228.451C135 228.451 128.212 217.322 129.182 211.031C130.152 204.741 129.541 197 129.541 197L119 197.482Z" fill="#9F616A"/>
<path d="M146.5 147C153.956 147 160 140.956 160 133.5C160 126.044 153.956 120 146.5 120C139.044 120 133 126.044 133 133.5C133 140.956 139.044 147 146.5 147Z" fill="#9F616A"/>
<path d="M136.297 135C136.297 135 136.788 154.611 133.349 157.552C129.91 160.494 153 158.042 153 158.042C153 158.042 148.087 144.315 152.017 141.373C155.948 138.432 136.297 135 136.297 135Z" fill="#9F616A"/>
<path d="M153.168 156.859C153.168 156.859 150.279 151.548 146.426 152.031C142.573 152.514 130.05 153.479 129.569 154.445C129.087 155.411 127.642 158.79 126.679 159.756C125.716 160.722 118.491 162.17 118.01 167.964C117.528 173.758 135.348 209.003 135.348 209.003C135.348 209.003 132.94 217.211 133.422 219.142C133.903 221.074 131.014 226.868 131.495 229.282C131.977 231.696 124.271 246.18 128.124 265.01V295.427C128.124 295.427 115.12 348.054 118.973 351.917C122.826 355.779 135.83 353.365 138.238 351.917C140.646 350.469 150.76 277.563 150.76 277.563L155.577 252.94L156.058 307.015C156.058 307.015 155.095 352.4 158.466 353.848C161.838 355.297 174.842 355.779 175.805 352.883C176.556 350.623 180.237 290.508 181.821 264.157C182.37 255.062 181.656 245.934 179.7 237.035C177.696 227.92 174.786 217.212 171.47 212.866C165.209 204.658 161.356 178.586 161.356 178.586L169.544 163.619C169.544 163.619 164.728 158.79 161.838 158.79C158.948 158.79 153.168 156.859 153.168 156.859Z" fill="#2F2E41"/>
<path d="M121.493 164L118.923 165.741C118.923 165.741 117.107 196.981 118.569 198.921C120.031 200.861 130.193 199.915 130.959 198.205C131.725 196.496 121.493 164 121.493 164Z" fill="#2F2E41"/>
<path d="M161 193.066C161 193.066 161.489 213.305 164.42 219.088C167.351 224.87 178.1 248.965 178.1 248.965C178.1 248.965 177.476 275.484 182.917 268.97C188.359 262.457 184.939 247.037 184.939 247.037L175.657 211.378C175.657 211.378 170.771 195.475 171.26 190.656C171.748 185.838 161 193.066 161 193.066Z" fill="#9F616A"/>
<path d="M169.054 355.045C169.054 355.045 169.547 354.669 171.026 356.082C172.506 357.495 176.451 359.379 175.958 364.56C175.465 369.741 172.506 370.683 172.506 370.683V369.27H171.026V371.625C171.026 371.625 168.561 379.161 157.219 374.451C157.219 374.451 156.726 370.683 157.219 368.328C157.712 365.973 157.712 354.669 159.192 355.14C160.671 355.611 164.616 356.082 165.602 357.966C166.588 359.85 169.547 359.19 169.054 355.045Z" fill="#2F2E41"/>
<path d="M119.946 356.045C119.946 356.045 119.453 355.669 117.974 357.082C116.494 358.495 112.549 360.379 113.042 365.56C113.535 370.741 116.494 371.683 116.494 371.683V370.27H117.974V372.625C117.974 372.625 120.439 380.161 131.781 375.451C131.781 375.451 132.274 371.683 131.781 369.328C131.288 366.973 131.288 355.669 129.808 356.14C128.329 356.611 124.384 357.082 123.398 358.966C122.412 360.85 119.453 360.19 119.946 356.045Z" fill="#2F2E41"/>
<path d="M162.729 162L169.681 163.45C169.681 163.45 169.681 174.087 171.667 178.439C173.653 182.79 177.129 192.943 175.639 193.427C174.149 193.91 160.246 200.679 159.253 196.811C158.26 192.943 155.778 162 162.729 162Z" fill="#2F2E41"/>
<path d="M122 123C131.941 123 140 114.941 140 105C140 95.0589 131.941 87 122 87C112.059 87 104 95.0589 104 105C104 114.941 112.059 123 122 123Z" fill="#2F2E41"/>
<path d="M106.096 119.733C110.842 123.13 116.955 124.039 122.499 122.172C128.042 120.306 132.329 115.895 134 110.338C133.15 117.029 128.573 122.68 122.161 124.953C115.749 127.226 108.591 125.736 103.646 121.098C98.7005 116.461 96.8085 109.464 98.7517 103C97.9272 109.488 100.743 115.904 106.096 119.733Z" fill="#2F2E41"/>
<path d="M136 144C143.18 144 149 138.18 149 131C149 123.82 143.18 118 136 118C128.82 118 123 123.82 123 131C123 138.18 128.82 144 136 144Z" fill="#2F2E41"/>
<path d="M146.5 135C152.851 135 158 130.971 158 126C158 121.029 152.851 117 146.5 117C140.149 117 135 121.029 135 126C135 130.971 140.149 135 146.5 135Z" fill="#2F2E41"/>
<path d="M150 139C151.105 139 152 137.209 152 135C152 132.791 151.105 131 150 131C148.895 131 148 132.791 148 135C148 137.209 148.895 139 150 139Z" fill="#A0616A"/>
<path d="M365 68L424 92" stroke="#3F3D56" stroke-width="2"/>
<path d="M367.559 73L368.471 72.5532L366.369 67.8418L371 65.986L370.64 65L365 67.2615L367.559 73Z" fill="#3F3D56"/>
<path d="M419.36 94L419 93.014L423.631 91.1587L421.529 86.4468L422.441 86L425 91.7395L419.36 94Z" fill="#3F3D56"/>
<path d="M394 85C396.761 85 399 82.7614 399 80C399 77.2386 396.761 75 394 75C391.239 75 389 77.2386 389 80C389 82.7614 391.239 85 394 85Z" fill="#3F3D56"/>
<path d="M361 231L414 198" stroke="#3F3D56" stroke-width="2"/>
<path d="M365.801 233L366 232.018L361.237 231.027L362.557 226.272L361.607 226L360 231.792L365.801 233Z" fill="#3F3D56"/>
<path d="M414.392 204L413.442 203.728L414.763 198.974L410 197.982L410.199 197L416 198.209L414.392 204Z" fill="#3F3D56"/>
<path d="M387 220C389.761 220 392 217.761 392 215C392 212.239 389.761 210 387 210C384.239 210 382 212.239 382 215C382 217.761 384.239 220 387 220Z" fill="#3F3D56"/>
<path d="M293.48 128L293.52 191" stroke="#3F3D56" stroke-width="2"/>
<path d="M290 131.329L290.717 132L293.999 128.445L297.284 131.998L298 131.326L293.998 127L290 131.329Z" fill="#3F3D56"/>
<path d="M290 187.674L290.716 187.002L294 190.555L297.284 187L298 187.671L294.001 192L290 187.674Z" fill="#3F3D56"/>
<path d="M293 164C295.761 164 298 161.761 298 159C298 156.239 295.761 154 293 154C290.239 154 288 156.239 288 159C288 161.761 290.239 164 293 164Z" fill="#3F3D56"/>
<rect x="249" width="87" height="109" fill="#3F3D56"/>
<path d="M287 41H267.022C265.659 33.059 265.659 24.941 267.022 17H287C284.749 24.8393 284.749 33.1607 287 41Z" fill="#FF6584"/>
<path d="M298 53H317.978C319.341 45.059 319.341 36.941 317.978 29H298C300.251 36.8393 300.251 45.1607 298 53Z" fill="#5E81F4"/>
<path d="M279 92H298.978C300.341 84.059 300.341 75.941 298.978 68H279C281.251 75.8393 281.251 84.1607 279 92Z" fill="#5E81F4"/>
<rect x="432" y="103" width="87" height="109" fill="#3F3D56"/>
<rect x="443" y="126" width="63" height="3" fill="#5E81F4"/>
<rect x="443" y="136" width="63" height="3" fill="#5E81F4"/>
<rect x="443" y="146" width="63" height="3" fill="#5E81F4"/>
<rect x="443" y="157" width="63" height="3" fill="#5E81F4"/>
<rect x="443" y="167" width="63" height="3" fill="#5E81F4"/>
<rect x="459" y="177" width="33" height="12" fill="#5E81F4"/>
<rect x="257" y="215" width="87" height="109" fill="#3F3D56"/>
<rect x="269" y="275" width="63" height="3" fill="#5E81F4"/>
<rect x="269" y="286" width="63" height="3" fill="#5E81F4"/>
<rect x="269" y="296" width="63" height="3" fill="#5E81F4"/>
<rect x="269" y="306" width="63" height="3" fill="#5E81F4"/>
<path opacity="0.3" d="M288 254H268.022C266.659 246.059 266.659 237.941 268.022 230H288C285.749 237.839 285.749 246.161 288 254Z" fill="#5E81F4"/>
<rect opacity="0.3" x="297" y="232" width="36" height="3" fill="#5E81F4"/>
<rect opacity="0.3" x="297" y="241" width="36" height="3" fill="#5E81F4"/>
<rect opacity="0.3" x="297" y="249" width="36" height="3" fill="#5E81F4"/>
<rect opacity="0.3" x="297" y="258" width="36" height="3" fill="#5E81F4"/>
</svg>
