<svg
  width="15"
  height="12"
  viewBox="0 0 15 12"
  xmlns="http://www.w3.org/2000/svg"
>
  <path
    d="M14.25 2.06641C13.875 2.62891 13.418 3.10937 12.8789 3.50781V3.85938C12.8789 4.79688 12.7031 5.72265 12.3516 6.63672C12 7.55079 11.502 8.39453 10.8574 9.16797C10.2129 9.94141 9.38086 10.5625 8.36133 11.0312C7.34179 11.5 6.22266 11.7344 5.00391 11.7344C3.45702 11.7344 2.03907 11.3242 0.75 10.5039C0.960939 10.5273 1.18359 10.5391 1.41797 10.5391C2.70704 10.5391 3.85546 10.1406 4.86328 9.34375C4.2539 9.34375 3.71485 9.16211 3.24609 8.79883C2.77734 8.43554 2.44922 7.97266 2.26172 7.41016C2.42578 7.45703 2.60156 7.48047 2.78906 7.48047C3.04688 7.48047 3.29297 7.44531 3.52734 7.375C2.87109 7.23437 2.33203 6.91211 1.91016 6.4082C1.48828 5.90429 1.27734 5.32422 1.27734 4.66797V4.63281C1.67578 4.84375 2.09765 4.96094 2.54297 4.98438C1.72265 4.42187 1.3125 3.64844 1.3125 2.66406C1.3125 2.17187 1.4414 1.70313 1.69922 1.25781C3.17579 3.08595 5.07421 4.05859 7.39453 4.17578C7.34766 3.96484 7.32422 3.75391 7.32422 3.54297C7.32422 2.76953 7.59375 2.11328 8.13281 1.57422C8.67188 1.03515 9.32812 0.765625 10.1016 0.765625C10.8984 0.765625 11.5664 1.05859 12.1055 1.64453C12.7383 1.52734 13.3242 1.30469 13.8633 0.976562C13.6523 1.63282 13.2539 2.13672 12.668 2.48828C13.207 2.41797 13.7344 2.27734 14.25 2.06641Z"
  />
</svg>